<svg id="Layer_1" xmlns="http://www.w3.org/2000/svg" viewBox="0 0 100 100">
  <style>.st1{fill:#499933}</style>
  <path d="M90.5 44.9H75.2V29.2l15.7-15.8c.1-.1.2-.3.2-.5V5.4c0-.4-.3-.8-.8-.8H50.9c-.2 0-.4.1-.5.2L8.9 46.5c-.1.1-.2.3-.2.5v7.4c0 .4.3.8.8.8h15.3v15.7L9 86.7c-.1.1-.2.3-.2.5v7.4c0 .4.3.8.8.8h39.5c.2 0 .4-.1.5-.2l41.6-41.6c.1-.1.2-.3.2-.5v-7.4c-.1-.4-.4-.8-.9-.8z" fill="#fff"/>
  <g id="XMLID_7_">
    <path class="st1" d="M73.6 30.8v14.7l-40 40V55.2h15.3c.2 0 .4-.1.5-.2l24.2-24.2z"/>
  </g>
  <g id="XMLID_6_">
    <path class="st1" d="M89.6 7.4v5.2l-.1.1-39.9 39.9v-5.2z"/>
  </g>
  <g id="XMLID_5_">
    <path class="st1" d="M88.6 46.6l-40 40H34.7l40-40z"/>
  </g>
  <g id="XMLID_4_">
    <path class="st1" d="M89.6 47.7v5.2l-40 40v-5.2z"/>
  </g>
  <g id="XMLID_3_">
    <path class="st1" d="M24.7 73.1v13.5H11.2z"/>
  </g>
  <g id="XMLID_2_">
    <path class="st1" d="M48.1 88.2V94h-38v-5.8h15.3c.4 0 .8-.3.8-.7V54.6c0-.4-.3-.8-.8-.8H10.1V48h38v5.8H32.8c-.4 0-.8.3-.8.8v32.8c0 .4.3.8.8.8h15.3z"/>
  </g>
  <g id="XMLID_1_">
    <path class="st1" d="M88.6 6.2l-40 40.1H11.2l40-40.1z"/>
  </g>
</svg>
