
<svg xmlns="http://www.w3.org/2000/svg" viewBox="0 0 100 100">
  <path d="M93 42l-10.7-4.7L93 32.6c.6-.3 1.1-.9 1.1-1.6s-.4-1.3-1.1-1.6L50.7 10.6c-.5-.2-1-.2-1.4 0L7 29.3c-.6.3-1.1.9-1.1 1.6s.4 1.3 1.1 1.6l10.7 4.7L7 42c-.6.3-1.1.9-1.1 1.6v12.7c0 .7.4 1.3 1.1 1.6l10.7 4.7L7 67.4c-.6.3-1.1.9-1.1 1.6s.4 1.3 1.1 1.6l42.3 18.7c.2.1.5.2.7.2s.5-.1.7-.2L93 70.7c.6-.3 1.1-.9 1.1-1.6s-.4-1.3-1.1-1.6l-10.7-4.7L93 58c.6-.3 1.1-.9 1.1-1.6V43.6c0-.7-.4-1.3-1.1-1.6zM50 14.2L87.9 31 50 47.7 12.1 30.9 50 14.2zm-.7 37.1c.2.1.5.2.7.2s.5-.1.7-.2l27.2-12.1 9.9 4.4L50 60.4 12.1 43.6l9.9-4.4 27.3 12.1zM23.6 61.4v-8.8l10.5 4.7v8.8l-10.5-4.7zm14.1-2.5l10.5 4.7v8.8l-10.5-4.7v-8.8zm14.1 4.6l10.5-4.7v8.8l-10.5 4.7v-8.8zm14.1-6.2l10.5-4.7v8.8l-10.5 4.7v-8.8zM9.5 46.4L20 51.1v8.8L9.5 55.2v-8.8zM50 85.8L12.1 69.1l9.9-4.4 27.2 12.1c.2.1.5.2.7.2s.5-.1.7-.2l27.2-12.1 9.9 4.4L50 85.8zm30-26V51l10.5-4.7v8.8L80 59.8z" fill="#4d4d4d"/>
</svg>
