<svg xmlns="http://www.w3.org/2000/svg" viewBox="-305 409 100 100">
  <path d="M-251.2 498.4v2.2l4.3 2.5 34.7-20.1v-2.2l-34.7 20z"/>
  <path d="M-220.8 479.9l-6.7 3.8v-3.5l-8.5 4.9v3.5l-6.7 3.9V489l-4.4 2.6-4.1-2.4v8.7l4.3 2.4 4.2-2.4v-4.4l7.1-4.1 3.9 2.2 4.2-2.5v-4.4l7.2-4.1 3.8 2.2 4.3-2.5v-8.9l-8.6 4.9zM-265.7 484.4v-3.6l-8.5-5v8.6l4.3 2.4z"/>
  <path d="M-269.9 487.3l-4.3-2.4v2.2l4.3 2.5 9.7-5.7-1.9-1.1zM-288.7 471.3v-3.9l-8.5-4.9v8.8l4.3 2.5z"/>
  <path d="M-292.9 474.3l-4.3-2.5v2.3l4.3 2.4 10-5.7-2-1.2zM-213.4 446l.3.1-34 19.7-49.1-28.5.3-.2-1-.6-.3.1v2.5l50.3 29.2 34.8-20.1v-2.5l-.4-.3z"/>
  <path d="M-213.4 449.7l.3.2-34 19.6-49.1-28.5.3-.2-1-.6-.3.1v2.6l50.3 29.1 34.8-20.1v-2.5l-.4-.2z"/>
  <path d="M-213.4 453.4l.3.2-34 19.6-49.1-28.5.3-.2-1-.6-.3.2v2.5l50.3 29.2 34.8-20.2v-2.5l-.4-.2z"/>
  <path d="M-213.4 457.1l.3.2-34 19.7-49.1-28.5.3-.2-1-.7-.3.2v2.5l50.3 29.2 34.8-20.2v-2.5l-.4-.2z"/>
  <path d="M-213.4 460.8l.3.2-34 19.7-49.1-28.5.3-.2-1-.7-.3.2v2.5l50.3 29.2 34.8-20.2v-2.5l-.4-.2z"/>
  <path d="M-213.4 464.5l.3.2-34 19.7-49.1-28.5.3-.2-1-.6-.3.1v2.5l50.3 29.2 34.8-20.1v-2.6l-.4-.2z"/>
  <path d="M-213.4 468.3l.3.1-34 19.7-49.1-28.5.3-.2-1-.6-.3.1v2.5l50.3 29.2 34.8-20.1V468l-.4-.3z"/>
  <path d="M-262.4 413.1l-34.8 19.8v2.5l50.3 29.2 34.8-20.1V442l-50.3-28.9zm15.3 49l-49.1-28.5 34-19.3 49.1 28.2-34 19.6z"/>
</svg>
